<svg xmlns="http://www.w3.org/2000/svg" xmlns:xlink="http://www.w3.org/1999/xlink" width="2000" zoomAndPan="magnify" viewBox="0 0 1500 1499.999933" height="2000" preserveAspectRatio="xMidYMid meet" version="1.0"><defs><g/><clipPath id="f15ac375ec"><rect x="0" width="1233" y="0" height="1158"/></clipPath></defs><rect x="-150" width="1800" fill="#ffffff" y="-149.999993" height="1799.99992" fill-opacity="1"/><rect x="-150" width="1800" fill="#b8943f" y="-149.999993" height="1799.99992" fill-opacity="1"/><g transform="matrix(1, 0, 0, 1, 137, 171)"><g clip-path="url(#f15ac375ec)"><g fill="#ffffff" fill-opacity="1"><g transform="translate(0.692155, 932.621081)"><g><path d="M 47.0625 0 L 47.0625 -686.703125 L 567.609375 -686.703125 L 567.609375 -545.515625 L 219.9375 -545.515625 L 219.9375 -423.546875 L 519.578125 -423.546875 L 519.578125 -282.375 L 219.9375 -282.375 L 219.9375 -141.1875 L 573.359375 -141.1875 L 573.359375 0 Z M 47.0625 0 "/></g></g></g><g fill="#ffffff" fill-opacity="1"><g transform="translate(603.802487, 932.621081)"><g><path d="M 327.515625 15.359375 C 267.960938 15.359375 214.65625 5.914062 167.59375 -12.96875 C 120.53125 -31.851562 83.234375 -59.382812 55.703125 -95.5625 C 28.171875 -131.738281 14.40625 -175.117188 14.40625 -225.703125 L 187.28125 -225.703125 C 187.28125 -201.367188 193.679688 -181.835938 206.484375 -167.109375 C 219.296875 -152.390625 236.265625 -141.828125 257.390625 -135.421875 C 278.523438 -129.015625 301.898438 -125.8125 327.515625 -125.8125 C 359.523438 -125.8125 384.015625 -131.414062 400.984375 -142.625 C 417.953125 -153.832031 426.4375 -168.078125 426.4375 -185.359375 C 426.4375 -203.929688 418.910156 -218.335938 403.859375 -228.578125 C 388.816406 -238.828125 368.488281 -247.789062 342.875 -255.46875 C 317.257812 -263.15625 288.125 -271.800781 255.46875 -281.40625 C 216.414062 -292.9375 179.921875 -307.023438 145.984375 -323.671875 C 112.046875 -340.316406 84.832031 -362.242188 64.34375 -389.453125 C 43.851562 -416.671875 33.609375 -451.410156 33.609375 -493.671875 C 33.609375 -543.597656 45.453125 -583.925781 69.140625 -614.65625 C 92.835938 -645.394531 124.695312 -667.644531 164.71875 -681.40625 C 204.738281 -695.175781 249.398438 -702.0625 298.703125 -702.0625 C 352.484375 -702.0625 400.984375 -693.097656 444.203125 -675.171875 C 487.421875 -657.242188 522.148438 -631.628906 548.390625 -598.328125 C 574.640625 -565.035156 588.40625 -525.023438 589.6875 -478.296875 L 416.828125 -478.296875 C 412.984375 -504.535156 400.65625 -524.859375 379.84375 -539.265625 C 359.039062 -553.671875 331.992188 -560.875 298.703125 -560.875 C 273.085938 -560.875 251.316406 -556.550781 233.390625 -547.90625 C 215.460938 -539.269531 206.5 -525.351562 206.5 -506.15625 C 206.5 -485.019531 217.378906 -469.488281 239.140625 -459.5625 C 260.910156 -449.644531 293.25 -438.601562 336.15625 -426.4375 C 368.8125 -417.46875 400.664062 -407.539062 431.71875 -396.65625 C 462.769531 -385.769531 490.9375 -372.160156 516.21875 -355.828125 C 541.507812 -339.503906 561.675781 -318.859375 576.71875 -293.890625 C 591.769531 -268.921875 599.296875 -238.1875 599.296875 -201.6875 C 599.296875 -135.738281 575.445312 -83.078125 527.75 -43.703125 C 480.050781 -4.328125 413.304688 15.359375 327.515625 15.359375 Z M 327.515625 15.359375 "/></g></g></g></g></g></svg>