<svg xmlns="http://www.w3.org/2000/svg" xmlns:xlink="http://www.w3.org/1999/xlink" width="1330" zoomAndPan="magnify" viewBox="90 672 1330 158" height="158" preserveAspectRatio="xMidYMid meet" version="1.0"><defs><g/><clipPath id="a14b8a30aa"><rect x="0" width="1291" y="0" height="188"/></clipPath><clipPath id="13d359aef1"><path d="M 925.175781 693.597656 L 951.425781 693.597656 L 951.425781 719.847656 L 925.175781 719.847656 Z M 925.175781 693.597656 " clip-rule="nonzero"/></clipPath></defs><g transform="matrix(1, 0, 0, 1, 105, 656)"><g clip-path="url(#a14b8a30aa)"><g fill="#ffffff" fill-opacity="1"><g transform="translate(0.298331, 150.864423)"><g><path d="M 7.5625 0 L 7.5625 -110.421875 L 91.265625 -110.421875 L 91.265625 -87.71875 L 35.359375 -87.71875 L 35.359375 -68.109375 L 83.546875 -68.109375 L 83.546875 -45.40625 L 35.359375 -45.40625 L 35.359375 -22.703125 L 92.203125 -22.703125 L 92.203125 0 Z M 7.5625 0 "/></g></g></g><g fill="#ffffff" fill-opacity="1"><g transform="translate(97.282299, 150.864423)"><g><path d="M 41.078125 2.46875 C 31.710938 2.46875 24.144531 1.179688 18.375 -1.390625 C 12.613281 -3.960938 8.394531 -7.410156 5.71875 -11.734375 C 3.039062 -16.054688 1.546875 -20.894531 1.234375 -26.25 L 24.40625 -26.25 C 25.125 -18.425781 30.375 -14.515625 40.15625 -14.515625 C 47.363281 -14.515625 50.96875 -16.78125 50.96875 -21.3125 C 50.96875 -24.707031 49.21875 -26.972656 45.71875 -28.109375 C 42.21875 -29.242188 37.328125 -30.476562 31.046875 -31.8125 C 26.617188 -32.84375 22.21875 -34.179688 17.84375 -35.828125 C 13.46875 -37.472656 9.863281 -39.914062 7.03125 -43.15625 C 4.195312 -46.40625 2.78125 -50.757812 2.78125 -56.21875 C 2.78125 -63.425781 5.765625 -69.445312 11.734375 -74.28125 C 17.703125 -79.125 26.25 -81.546875 37.375 -81.546875 C 45.8125 -81.546875 52.628906 -80.28125 57.828125 -77.75 C 63.035156 -75.226562 66.875 -71.9375 69.34375 -67.875 C 71.8125 -63.8125 73.148438 -59.460938 73.359375 -54.828125 L 50.1875 -54.828125 C 49.78125 -58.015625 48.648438 -60.429688 46.796875 -62.078125 C 44.941406 -63.734375 42.003906 -64.5625 37.984375 -64.5625 C 34.484375 -64.5625 31.859375 -63.992188 30.109375 -62.859375 C 28.359375 -61.722656 27.484375 -60.175781 27.484375 -58.21875 C 27.484375 -55.4375 28.820312 -53.6875 31.5 -52.96875 C 34.175781 -52.25 38.550781 -51.222656 44.625 -49.890625 C 49.882812 -48.753906 54.878906 -47.257812 59.609375 -45.40625 C 64.347656 -43.550781 68.207031 -40.898438 71.1875 -37.453125 C 74.175781 -34.003906 75.671875 -29.289062 75.671875 -23.3125 C 75.671875 -14.976562 72.660156 -8.597656 66.640625 -4.171875 C 60.617188 0.253906 52.097656 2.46875 41.078125 2.46875 Z M 41.078125 2.46875 "/></g></g></g><g fill="#ffffff" fill-opacity="1"><g transform="translate(175.116565, 150.864423)"><g><path d="M 35.828125 1.390625 C 26.765625 1.390625 20.632812 -0.945312 17.4375 -5.625 C 14.25 -10.3125 12.65625 -17.085938 12.65625 -25.953125 L 12.65625 -60.546875 L 1.703125 -60.546875 L 1.703125 -79.078125 L 12.65625 -79.078125 L 12.65625 -101.15625 L 37.375 -101.15625 L 37.375 -79.078125 L 51.125 -79.078125 L 51.125 -60.546875 L 37.375 -60.546875 L 37.375 -27.796875 C 37.375 -24.804688 37.785156 -22.691406 38.609375 -21.453125 C 39.429688 -20.222656 40.847656 -19.476562 42.859375 -19.21875 C 44.867188 -18.96875 47.625 -18.84375 51.125 -18.84375 L 51.125 -0.3125 C 48.851562 0.101562 46.609375 0.488281 44.390625 0.84375 C 42.179688 1.207031 39.328125 1.390625 35.828125 1.390625 Z M 35.828125 1.390625 "/></g></g></g><g fill="#ffffff" fill-opacity="1"><g transform="translate(229.322573, 150.864423)"><g><path d="M 28.265625 2.46875 C 19.921875 2.46875 13.507812 0.332031 9.03125 -3.9375 C 4.550781 -8.207031 2.3125 -13.640625 2.3125 -20.234375 C 2.3125 -28.160156 5.015625 -34.128906 10.421875 -38.140625 C 15.828125 -42.160156 23.164062 -45.097656 32.4375 -46.953125 C 35.832031 -47.671875 39.070312 -48.390625 42.15625 -49.109375 C 45.25 -49.828125 47.769531 -50.804688 49.71875 -52.046875 C 51.675781 -53.285156 52.65625 -54.984375 52.65625 -57.140625 C 52.65625 -62.085938 49.3125 -64.5625 42.625 -64.5625 C 38.195312 -64.5625 34.847656 -63.679688 32.578125 -61.921875 C 30.316406 -60.171875 28.984375 -57.394531 28.578125 -53.59375 L 5.40625 -53.59375 C 5.71875 -58.632812 7.160156 -63.265625 9.734375 -67.484375 C 12.304688 -71.710938 16.316406 -75.113281 21.765625 -77.6875 C 27.222656 -80.257812 34.226562 -81.546875 42.78125 -81.546875 C 53.894531 -81.546875 62.4375 -79.070312 68.40625 -74.125 C 74.382812 -69.1875 77.375 -60.488281 77.375 -48.03125 L 77.375 -11.734375 C 77.375 -7.828125 78.914062 -5.875 82 -5.875 L 82 0 C 79.53125 0.925781 77.132812 1.566406 74.8125 1.921875 C 72.5 2.285156 70.109375 2.46875 67.640625 2.46875 C 62.078125 2.46875 58.316406 1.363281 56.359375 -0.84375 C 54.410156 -3.0625 53.4375 -5.5625 53.4375 -8.34375 L 53.125 -8.34375 C 50.550781 -5.457031 47.078125 -2.929688 42.703125 -0.765625 C 38.328125 1.390625 33.515625 2.46875 28.265625 2.46875 Z M 36.90625 -14.515625 C 42.257812 -14.515625 46.222656 -15.957031 48.796875 -18.84375 C 51.367188 -21.726562 52.65625 -25.070312 52.65625 -28.875 L 52.65625 -38.453125 C 49.675781 -37.316406 45.457031 -36.132812 40 -34.90625 C 35.15625 -33.875 31.78125 -32.378906 29.875 -30.421875 C 27.976562 -28.460938 27.03125 -26.25 27.03125 -23.78125 C 27.03125 -20.59375 27.929688 -18.25 29.734375 -16.75 C 31.535156 -15.257812 33.925781 -14.515625 36.90625 -14.515625 Z M 36.90625 -14.515625 "/></g></g></g><g fill="#ffffff" fill-opacity="1"><g transform="translate(314.724063, 150.864423)"><g><path d="M 35.828125 1.390625 C 26.765625 1.390625 20.632812 -0.945312 17.4375 -5.625 C 14.25 -10.3125 12.65625 -17.085938 12.65625 -25.953125 L 12.65625 -60.546875 L 1.703125 -60.546875 L 1.703125 -79.078125 L 12.65625 -79.078125 L 12.65625 -101.15625 L 37.375 -101.15625 L 37.375 -79.078125 L 51.125 -79.078125 L 51.125 -60.546875 L 37.375 -60.546875 L 37.375 -27.796875 C 37.375 -24.804688 37.785156 -22.691406 38.609375 -21.453125 C 39.429688 -20.222656 40.847656 -19.476562 42.859375 -19.21875 C 44.867188 -18.96875 47.625 -18.84375 51.125 -18.84375 L 51.125 -0.3125 C 48.851562 0.101562 46.609375 0.488281 44.390625 0.84375 C 42.179688 1.207031 39.328125 1.390625 35.828125 1.390625 Z M 35.828125 1.390625 "/></g></g></g><g fill="#ffffff" fill-opacity="1"><g transform="translate(368.930052, 150.864423)"><g><path d="M 44.625 2.46875 C 35.875 2.46875 28.359375 0.691406 22.078125 -2.859375 C 15.796875 -6.410156 10.957031 -11.351562 7.5625 -17.6875 C 4.164062 -24.019531 2.46875 -31.300781 2.46875 -39.53125 C 2.46875 -47.5625 4.113281 -54.742188 7.40625 -61.078125 C 10.707031 -67.410156 15.421875 -72.40625 21.546875 -76.0625 C 27.671875 -79.71875 34.90625 -81.546875 43.25 -81.546875 C 52.300781 -81.546875 59.835938 -79.507812 65.859375 -75.4375 C 71.890625 -71.375 76.421875 -65.6875 79.453125 -58.375 C 82.492188 -51.0625 84.015625 -42.617188 84.015625 -33.046875 L 27.1875 -33.046875 C 27.1875 -27.484375 28.910156 -23.257812 32.359375 -20.375 C 35.804688 -17.5 39.742188 -16.0625 44.171875 -16.0625 C 48.390625 -16.0625 51.601562 -16.882812 53.8125 -18.53125 C 56.03125 -20.175781 57.5 -21.976562 58.21875 -23.9375 L 82.78125 -23.9375 C 80.613281 -16.007812 76.390625 -9.625 70.109375 -4.78125 C 63.828125 0.0507812 55.332031 2.46875 44.625 2.46875 Z M 27.1875 -48.03125 L 59.296875 -48.03125 C 59.296875 -53.488281 57.800781 -57.609375 54.8125 -60.390625 C 51.832031 -63.171875 47.976562 -64.5625 43.25 -64.5625 C 38.507812 -64.5625 34.644531 -63.171875 31.65625 -60.390625 C 28.675781 -57.609375 27.1875 -53.488281 27.1875 -48.03125 Z M 27.1875 -48.03125 "/></g></g></g><g fill="#ffffff" fill-opacity="1"><g transform="translate(455.412614, 150.864423)"><g/></g></g><g fill="#ffffff" fill-opacity="1"><g transform="translate(481.666238, 150.864423)"><g><path d="M 52.65625 2.46875 C 43.082031 2.46875 34.507812 0.953125 26.9375 -2.078125 C 19.375 -5.117188 13.378906 -9.546875 8.953125 -15.359375 C 4.523438 -21.179688 2.3125 -28.160156 2.3125 -36.296875 L 30.109375 -36.296875 C 30.109375 -32.378906 31.140625 -29.234375 33.203125 -26.859375 C 35.265625 -24.492188 37.992188 -22.796875 41.390625 -21.765625 C 44.785156 -20.742188 48.539062 -20.234375 52.65625 -20.234375 C 57.8125 -20.234375 61.75 -21.132812 64.46875 -22.9375 C 67.195312 -24.738281 68.5625 -27.03125 68.5625 -29.8125 C 68.5625 -32.789062 67.351562 -35.101562 64.9375 -36.75 C 62.519531 -38.40625 59.25 -39.847656 55.125 -41.078125 C 51.007812 -42.316406 46.328125 -43.707031 41.078125 -45.25 C 34.796875 -47.101562 28.925781 -49.367188 23.46875 -52.046875 C 18.019531 -54.722656 13.644531 -58.25 10.34375 -62.625 C 7.050781 -67 5.40625 -72.582031 5.40625 -79.375 C 5.40625 -87.40625 7.304688 -93.890625 11.109375 -98.828125 C 14.921875 -103.773438 20.046875 -107.351562 26.484375 -109.5625 C 32.921875 -111.78125 40.101562 -112.890625 48.03125 -112.890625 C 56.675781 -112.890625 64.472656 -111.445312 71.421875 -108.5625 C 78.378906 -105.6875 83.96875 -101.570312 88.1875 -96.21875 C 92.40625 -90.863281 94.617188 -84.425781 94.828125 -76.90625 L 67.03125 -76.90625 C 66.40625 -81.125 64.421875 -84.390625 61.078125 -86.703125 C 57.734375 -89.023438 53.382812 -90.1875 48.03125 -90.1875 C 43.914062 -90.1875 40.414062 -89.488281 37.53125 -88.09375 C 34.644531 -86.707031 33.203125 -84.472656 33.203125 -81.390625 C 33.203125 -77.992188 34.953125 -75.492188 38.453125 -73.890625 C 41.953125 -72.296875 47.148438 -70.519531 54.046875 -68.5625 C 59.296875 -67.125 64.414062 -65.53125 69.40625 -63.78125 C 74.40625 -62.03125 78.9375 -59.84375 83 -57.21875 C 87.070312 -54.59375 90.316406 -51.269531 92.734375 -47.25 C 95.160156 -43.238281 96.375 -38.300781 96.375 -32.4375 C 96.375 -21.832031 92.535156 -13.363281 84.859375 -7.03125 C 77.191406 -0.695312 66.457031 2.46875 52.65625 2.46875 Z M 52.65625 2.46875 "/></g></g></g><g fill="#ffffff" fill-opacity="1"><g transform="translate(581.584385, 150.864423)"><g><path d="M 35.828125 1.390625 C 26.765625 1.390625 20.632812 -0.945312 17.4375 -5.625 C 14.25 -10.3125 12.65625 -17.085938 12.65625 -25.953125 L 12.65625 -60.546875 L 1.703125 -60.546875 L 1.703125 -79.078125 L 12.65625 -79.078125 L 12.65625 -101.15625 L 37.375 -101.15625 L 37.375 -79.078125 L 51.125 -79.078125 L 51.125 -60.546875 L 37.375 -60.546875 L 37.375 -27.796875 C 37.375 -24.804688 37.785156 -22.691406 38.609375 -21.453125 C 39.429688 -20.222656 40.847656 -19.476562 42.859375 -19.21875 C 44.867188 -18.96875 47.625 -18.84375 51.125 -18.84375 L 51.125 -0.3125 C 48.851562 0.101562 46.609375 0.488281 44.390625 0.84375 C 42.179688 1.207031 39.328125 1.390625 35.828125 1.390625 Z M 35.828125 1.390625 "/></g></g></g><g fill="#ffffff" fill-opacity="1"><g transform="translate(635.790415, 150.864423)"><g><path d="M 31.046875 2.46875 C 23.421875 2.46875 17.238281 0.0507812 12.5 -4.78125 C 7.769531 -9.625 5.40625 -16.578125 5.40625 -25.640625 L 5.40625 -79.078125 L 30.109375 -79.078125 L 30.109375 -33.515625 C 30.109375 -27.546875 31.140625 -23.398438 33.203125 -21.078125 C 35.265625 -18.765625 38.351562 -17.609375 42.46875 -17.609375 C 47.207031 -17.609375 50.863281 -18.867188 53.4375 -21.390625 C 56.007812 -23.910156 57.296875 -27.898438 57.296875 -33.359375 L 57.296875 -79.078125 L 82 -79.078125 L 82 0 L 57.296875 0 L 57.296875 -11.421875 L 56.984375 -11.421875 C 54.929688 -7.816406 51.84375 -4.597656 47.71875 -1.765625 C 43.601562 1.054688 38.046875 2.46875 31.046875 2.46875 Z M 31.046875 2.46875 "/></g></g></g><g fill="#ffffff" fill-opacity="1"><g transform="translate(723.817251, 150.864423)"><g><path d="M 36.90625 2.46875 C 29.90625 2.46875 23.832031 0.769531 18.6875 -2.625 C 13.539062 -6.019531 9.550781 -10.859375 6.71875 -17.140625 C 3.882812 -23.421875 2.46875 -30.882812 2.46875 -39.53125 C 2.46875 -48.1875 3.882812 -55.648438 6.71875 -61.921875 C 9.550781 -68.203125 13.539062 -73.039062 18.6875 -76.4375 C 23.832031 -79.84375 29.90625 -81.546875 36.90625 -81.546875 C 40.71875 -81.546875 44.164062 -80.976562 47.25 -79.84375 C 50.34375 -78.707031 52.941406 -77.34375 55.046875 -75.75 C 57.160156 -74.15625 58.734375 -72.640625 59.765625 -71.203125 L 60.078125 -71.203125 L 60.078125 -110.421875 L 84.78125 -110.421875 L 84.78125 0 L 60.078125 0 L 60.078125 -7.875 L 59.765625 -7.875 C 58.734375 -6.539062 57.160156 -5.046875 55.046875 -3.390625 C 52.941406 -1.742188 50.34375 -0.359375 47.25 0.765625 C 44.164062 1.898438 40.71875 2.46875 36.90625 2.46875 Z M 43.390625 -16.0625 C 48.441406 -16.0625 52.40625 -18.039062 55.28125 -22 C 58.164062 -25.96875 59.609375 -31.8125 59.609375 -39.53125 C 59.609375 -47.257812 58.164062 -53.101562 55.28125 -57.0625 C 52.40625 -61.03125 48.441406 -63.015625 43.390625 -63.015625 C 38.347656 -63.015625 34.382812 -61.03125 31.5 -57.0625 C 28.625 -53.101562 27.1875 -47.257812 27.1875 -39.53125 C 27.1875 -31.8125 28.625 -25.96875 31.5 -22 C 34.382812 -18.039062 38.347656 -16.0625 43.390625 -16.0625 Z M 43.390625 -16.0625 "/></g></g></g><g fill="#ffffff" fill-opacity="1"><g transform="translate(814.62386, 150.864423)"><g><path d="M 18.375 -88.5 C 14.875 -88.5 11.9375 -89.421875 9.5625 -91.265625 C 7.195312 -93.117188 6.015625 -95.847656 6.015625 -99.453125 C 6.015625 -103.054688 7.195312 -105.785156 9.5625 -107.640625 C 11.9375 -109.492188 14.875 -110.421875 18.375 -110.421875 C 21.875 -110.421875 24.804688 -109.492188 27.171875 -107.640625 C 29.546875 -105.785156 30.734375 -103.054688 30.734375 -99.453125 C 30.734375 -95.847656 29.546875 -93.117188 27.171875 -91.265625 C 24.804688 -89.421875 21.875 -88.5 18.375 -88.5 Z M 6.015625 0 L 6.015625 -79.078125 L 30.734375 -79.078125 L 30.734375 0 Z M 6.015625 0 "/></g></g></g><g fill="#ffffff" fill-opacity="1"><g transform="translate(851.37895, 150.864423)"><g><path d="M 44.78125 2.46875 C 36.03125 2.46875 28.488281 0.664062 22.15625 -2.9375 C 15.820312 -6.539062 10.957031 -11.503906 7.5625 -17.828125 C 4.164062 -24.160156 2.46875 -31.394531 2.46875 -39.53125 C 2.46875 -47.769531 4.164062 -55.03125 7.5625 -61.3125 C 10.957031 -67.59375 15.820312 -72.535156 22.15625 -76.140625 C 28.488281 -79.742188 36.03125 -81.546875 44.78125 -81.546875 C 53.539062 -81.546875 61.054688 -79.742188 67.328125 -76.140625 C 73.609375 -72.535156 78.445312 -67.59375 81.84375 -61.3125 C 85.25 -55.03125 86.953125 -47.769531 86.953125 -39.53125 C 86.953125 -31.394531 85.25 -24.160156 81.84375 -17.828125 C 78.445312 -11.503906 73.609375 -6.539062 67.328125 -2.9375 C 61.054688 0.664062 53.539062 2.46875 44.78125 2.46875 Z M 44.78125 -16.0625 C 50.238281 -16.0625 54.507812 -18.066406 57.59375 -22.078125 C 60.6875 -26.097656 62.234375 -31.914062 62.234375 -39.53125 C 62.234375 -47.15625 60.6875 -52.972656 57.59375 -56.984375 C 54.507812 -61.003906 50.238281 -63.015625 44.78125 -63.015625 C 39.332031 -63.015625 35.035156 -61.003906 31.890625 -56.984375 C 28.753906 -52.972656 27.1875 -47.15625 27.1875 -39.53125 C 27.1875 -31.914062 28.753906 -26.097656 31.890625 -22.078125 C 35.035156 -18.066406 39.332031 -16.0625 44.78125 -16.0625 Z M 44.78125 -16.0625 "/></g></g></g><g fill="#ffffff" fill-opacity="1"><g transform="translate(940.800049, 150.864423)"><g/></g></g><g fill="#ffffff" fill-opacity="1"><g transform="translate(974.003147, 150.864423)"><g><path d="M 9.421875 0 L 9.421875 -110.421875 L 20.078125 -110.421875 L 20.078125 -8.953125 L 79.84375 -8.953125 L 79.84375 0 Z M 9.421875 0 "/></g></g></g><g fill="#ffffff" fill-opacity="1"><g transform="translate(1057.242573, 150.864423)"><g><path d="M 29.03125 1.859375 C 21.207031 1.859375 14.976562 -0.0976562 10.34375 -4.015625 C 5.707031 -7.929688 3.390625 -13.128906 3.390625 -19.609375 C 3.390625 -27.128906 5.859375 -32.738281 10.796875 -36.4375 C 15.742188 -40.144531 23.210938 -42.828125 33.203125 -44.484375 C 37.015625 -45.203125 40.75 -45.867188 44.40625 -46.484375 C 48.0625 -47.097656 51.097656 -48.253906 53.515625 -49.953125 C 55.929688 -51.660156 57.140625 -54.46875 57.140625 -58.375 C 57.140625 -63.519531 55.414062 -67.328125 51.96875 -69.796875 C 48.519531 -72.273438 44.066406 -73.515625 38.609375 -73.515625 C 31.503906 -73.515625 26.097656 -71.992188 22.390625 -68.953125 C 18.679688 -65.921875 16.625 -61.675781 16.21875 -56.21875 L 6.953125 -56.21875 C 7.253906 -60.226562 8.410156 -64.113281 10.421875 -67.875 C 12.429688 -71.632812 15.703125 -74.722656 20.234375 -77.140625 C 24.765625 -79.554688 30.890625 -80.765625 38.609375 -80.765625 C 44.066406 -80.765625 48.90625 -79.941406 53.125 -78.296875 C 57.34375 -76.648438 60.660156 -73.867188 63.078125 -69.953125 C 65.503906 -66.046875 66.71875 -60.742188 66.71875 -54.046875 L 66.71875 -14.828125 C 66.71875 -12.972656 66.84375 -11.117188 67.09375 -9.265625 C 67.351562 -7.410156 68.175781 -5.96875 69.5625 -4.9375 C 70.957031 -3.90625 73.351562 -3.703125 76.75 -4.328125 L 76.75 0.15625 C 74.175781 0.875 71.707031 1.234375 69.34375 1.234375 C 64.914062 1.234375 61.800781 0.15625 60 -2 C 58.195312 -4.164062 57.296875 -7.460938 57.296875 -11.890625 L 56.984375 -11.890625 C 54.003906 -7.148438 50.09375 -3.671875 45.25 -1.453125 C 40.40625 0.753906 35 1.859375 29.03125 1.859375 Z M 32.125 -5.40625 C 37.882812 -5.40625 42.59375 -6.484375 46.25 -8.640625 C 49.90625 -10.804688 52.632812 -13.429688 54.4375 -16.515625 C 56.238281 -19.609375 57.140625 -22.597656 57.140625 -25.484375 L 57.140625 -45.40625 C 55.804688 -43.34375 53.257812 -41.847656 49.5 -40.921875 C 45.738281 -39.992188 41.285156 -39.171875 36.140625 -38.453125 C 29.242188 -37.523438 23.65625 -35.828125 19.375 -33.359375 C 15.101562 -30.890625 12.96875 -26.925781 12.96875 -21.46875 C 12.96875 -16.113281 14.640625 -12.097656 17.984375 -9.421875 C 21.335938 -6.742188 26.050781 -5.40625 32.125 -5.40625 Z M 32.125 -5.40625 "/></g></g></g><g fill="#ffffff" fill-opacity="1"><g transform="translate(1135.385694, 150.864423)"><g><path d="M 45.71875 1.859375 C 40.875 1.859375 36.597656 0.957031 32.890625 -0.84375 C 29.179688 -2.644531 26.066406 -4.960938 23.546875 -7.796875 C 21.023438 -10.628906 19.046875 -13.640625 17.609375 -16.828125 L 17.296875 -16.828125 L 17.296875 0 L 7.71875 0 L 7.71875 -110.421875 L 17.296875 -110.421875 L 17.296875 -61.78125 L 17.609375 -61.78125 C 19.765625 -66.925781 23.1875 -71.375 27.875 -75.125 C 32.5625 -78.882812 38.507812 -80.765625 45.71875 -80.765625 C 52.195312 -80.765625 58.007812 -79.117188 63.15625 -75.828125 C 68.3125 -72.535156 72.378906 -67.800781 75.359375 -61.625 C 78.347656 -55.445312 79.84375 -48.03125 79.84375 -39.375 C 79.84375 -30.726562 78.347656 -23.34375 75.359375 -17.21875 C 72.378906 -11.09375 68.3125 -6.378906 63.15625 -3.078125 C 58.007812 0.210938 52.195312 1.859375 45.71875 1.859375 Z M 43.25 -5.71875 C 51.175781 -5.71875 57.632812 -8.675781 62.625 -14.59375 C 67.613281 -20.507812 70.109375 -28.769531 70.109375 -39.375 C 70.109375 -50.082031 67.613281 -58.367188 62.625 -64.234375 C 57.632812 -70.109375 51.175781 -73.046875 43.25 -73.046875 C 38.613281 -73.046875 34.335938 -71.707031 30.421875 -69.03125 C 26.515625 -66.351562 23.375 -62.515625 21 -57.515625 C 18.632812 -52.523438 17.453125 -46.476562 17.453125 -39.375 C 17.453125 -32.375 18.632812 -26.351562 21 -21.3125 C 23.375 -16.269531 26.515625 -12.410156 30.421875 -9.734375 C 34.335938 -7.054688 38.613281 -5.71875 43.25 -5.71875 Z M 43.25 -5.71875 "/></g></g></g><g fill="#ffffff" fill-opacity="1"><g transform="translate(1218.779547, 150.864423)"><g><path d="M 37.984375 1.859375 C 30.054688 1.859375 23.519531 0.675781 18.375 -1.6875 C 13.226562 -4.0625 9.394531 -7.304688 6.875 -11.421875 C 4.351562 -15.546875 2.9375 -20.128906 2.625 -25.171875 L 11.890625 -25.171875 C 12.304688 -19.304688 14.675781 -14.546875 19 -10.890625 C 23.320312 -7.234375 29.550781 -5.40625 37.6875 -5.40625 C 43.445312 -5.40625 48.28125 -6.796875 52.1875 -9.578125 C 56.101562 -12.359375 58.0625 -15.910156 58.0625 -20.234375 C 58.0625 -24.554688 56.925781 -27.769531 54.65625 -29.875 C 52.394531 -31.988281 49.332031 -33.613281 45.46875 -34.75 C 41.613281 -35.882812 37.367188 -37.015625 32.734375 -38.140625 C 27.585938 -39.484375 22.929688 -40.898438 18.765625 -42.390625 C 14.597656 -43.878906 11.273438 -45.960938 8.796875 -48.640625 C 6.328125 -51.316406 5.09375 -54.972656 5.09375 -59.609375 C 5.09375 -65.890625 7.664062 -70.984375 12.8125 -74.890625 C 17.96875 -78.804688 25.125 -80.765625 34.28125 -80.765625 C 41.28125 -80.765625 46.941406 -79.628906 51.265625 -77.359375 C 55.597656 -75.097656 58.867188 -72.191406 61.078125 -68.640625 C 63.296875 -65.085938 64.609375 -61.359375 65.015625 -57.453125 L 55.75 -57.453125 C 55.03125 -61.566406 53.019531 -65.269531 49.71875 -68.5625 C 46.425781 -71.863281 41.332031 -73.515625 34.4375 -73.515625 C 31.144531 -73.515625 27.976562 -73.050781 24.9375 -72.125 C 21.90625 -71.195312 19.460938 -69.726562 17.609375 -67.71875 C 15.753906 -65.707031 14.828125 -63.160156 14.828125 -60.078125 C 14.828125 -56.984375 15.851562 -54.5625 17.90625 -52.8125 C 19.96875 -51.0625 22.828125 -49.671875 26.484375 -48.640625 C 30.140625 -47.617188 34.285156 -46.539062 38.921875 -45.40625 C 44.484375 -44.0625 49.425781 -42.539062 53.75 -40.84375 C 58.070312 -39.144531 61.46875 -36.800781 63.9375 -33.8125 C 66.40625 -30.832031 67.640625 -26.664062 67.640625 -21.3125 C 67.640625 -14.3125 64.988281 -8.695312 59.6875 -4.46875 C 54.382812 -0.25 47.148438 1.859375 37.984375 1.859375 Z M 37.984375 1.859375 "/></g></g></g></g></g><g clip-path="url(#13d359aef1)"><path fill="#b8943f" d="M 938.253906 693.597656 C 931.027344 693.597656 925.175781 699.449219 925.175781 706.675781 C 925.175781 713.898438 931.027344 719.753906 938.253906 719.753906 C 945.480469 719.753906 951.332031 713.898438 951.332031 706.675781 C 951.332031 699.449219 945.480469 693.597656 938.253906 693.597656 Z M 938.253906 693.597656 " fill-opacity="1" fill-rule="nonzero"/></g></svg>